<?xml version="1.0" standalone="no"?>
<!DOCTYPE svg PUBLIC "-//W3C//DTD SVG 20010904//EN"
 "http://www.w3.org/TR/2001/REC-SVG-20010904/DTD/svg10.dtd">
<svg version="1.0" xmlns="http://www.w3.org/2000/svg"
 width="512.000000pt" height="512.000000pt" viewBox="0 0 512.000000 512.000000"
 preserveAspectRatio="xMidYMid meet">
<metadata>
Created by potrace 1.11, written by Peter Selinger 2001-2013
</metadata>
<g transform="translate(0.000000,512.000000) scale(0.100000,-0.100000)"
fill="#000000" stroke="none">
<path d="M1880 4523 c-51 -9 -157 -47 -221 -79 -86 -43 -196 -164 -149 -164
20 0 127 65 123 76 -5 15 138 79 209 94 56 11 98 3 98 -19 0 -24 -48 -63 -112
-89 -126 -52 -129 -52 -80 2 24 26 41 50 38 53 -9 9 -84 -47 -122 -90 -21 -25
-54 -48 -90 -63 -56 -22 -56 -22 -77 -3 -11 10 -25 19 -29 19 -5 0 -26 11 -48
25 -33 21 -52 25 -113 25 -121 0 -207 -33 -294 -114 -79 -72 -132 -200 -133
-317 0 -48 27 -149 41 -149 4 0 5 -9 2 -20 -3 -12 0 -20 6 -20 7 0 11 -6 10
-12 -3 -28 2 -36 21 -31 17 5 20 0 20 -26 0 -32 8 -39 26 -21 11 11 44 4 44
-9 0 -4 23 -18 50 -31 27 -13 50 -27 50 -32 0 -4 12 -8 26 -8 23 0 65 -21 149
-73 10 -7 27 -21 38 -32 10 -11 16 -14 12 -7 -8 16 5 15 29 -3 10 -7 15 -18
12 -23 -3 -5 2 -9 11 -8 10 0 18 -6 18 -14 0 -8 7 -14 15 -13 9 2 20 -7 25
-20 9 -20 218 -164 380 -262 36 -22 89 -58 117 -80 l51 -39 -27 -7 c-15 -4
-33 -12 -40 -18 -7 -6 -50 -25 -96 -41 -46 -17 -103 -41 -128 -55 -44 -25 -44
-25 -71 -6 -30 21 -98 51 -115 51 -6 -1 16 -14 48 -30 54 -26 122 -78 86 -66
-15 5 -39 -6 -264 -124 -98 -50 -105 -56 -100 -80 4 -21 4 -22 -6 -7 -15 24
-73 21 -138 -7 l-53 -23 25 -17 c30 -19 34 -36 9 -36 -14 0 -12 -4 7 -25 24
-26 50 -33 50 -15 0 7 6 7 19 1 19 -11 49 9 70 46 5 10 13 14 18 10 4 -5 -1
-16 -12 -24 -19 -15 -19 -15 5 -8 14 4 39 7 55 7 17 0 55 8 85 18 30 10 109
30 175 44 66 15 137 30 158 35 21 5 38 5 39 0 4 -27 0 -33 -25 -36 -70 -10
-246 -77 -473 -183 l-72 -33 15 -42 c12 -37 42 -59 43 -31 0 6 6 3 14 -6 11
-16 17 -16 62 -2 27 8 55 13 63 12 19 -4 -96 -77 -131 -85 -21 -4 -28 -12 -28
-28 0 -33 -21 -86 -31 -79 -5 3 -7 9 -4 14 3 5 -3 17 -13 27 -12 11 -24 44
-30 80 -14 82 -53 160 -110 224 -29 33 -39 50 -28 46 19 -8 19 -7 2 11 -29 33
-136 75 -201 80 -59 4 -60 4 -43 -15 10 -11 18 -24 18 -30 0 -20 179 -403 234
-501 63 -113 92 -147 72 -85 -12 35 -185 390 -257 526 -37 70 -33 104 7 66 54
-50 157 -231 214 -375 42 -104 69 -156 80 -149 5 3 12 1 15 -5 5 -8 11 -7 21
1 8 7 14 7 14 1 0 -16 31 -23 47 -11 7 7 16 9 19 6 9 -9 172 51 258 96 43 22
105 60 137 84 51 37 57 39 47 18 -6 -13 -14 -22 -18 -20 -4 2 -7 -2 -7 -10 0
-8 4 -15 9 -15 5 0 6 -5 2 -12 -4 -7 -3 -8 5 -4 6 4 8 12 5 18 -4 7 -2 8 4 4
7 -4 11 -25 10 -46 -1 -30 5 -46 23 -64 48 -49 59 -63 59 -73 0 -16 36 -44 45
-36 4 5 5 0 2 -10 -4 -10 -3 -16 3 -12 11 7 43 -63 35 -75 -13 -20 38 -20 73
0 34 19 29 14 -22 -23 -18 -13 -18 -15 -1 -68 10 -30 20 -57 22 -62 2 -4 23 6
46 21 23 16 71 39 105 52 l64 23 -4 49 c-1 26 0 48 3 48 6 0 22 -59 23 -85 1
-5 31 -13 69 -16 37 -3 73 -11 79 -17 10 -10 2 -11 -33 -6 -119 16 -305 -48
-375 -129 -18 -22 -32 -43 -29 -45 2 -3 0 -12 -4 -21 -10 -17 11 -45 25 -33 4
4 4 2 1 -4 -4 -6 0 -24 7 -40 35 -72 66 -156 66 -179 0 -20 -5 -24 -24 -23
-15 1 -22 7 -19 15 3 7 0 13 -6 13 -12 0 -15 -46 -3 -52 11 -4 52 -137 53
-173 1 -16 -1 -37 -5 -45 -8 -19 43 -122 63 -128 8 -3 11 0 7 6 -3 6 -1 14 5
17 7 5 10 -4 8 -26 -8 -87 39 -251 91 -323 17 -22 30 -45 30 -52 0 -6 16 -28
36 -47 29 -27 56 -40 128 -60 50 -14 111 -28 137 -31 50 -7 143 9 174 30 11 8
26 14 33 14 35 0 84 35 110 79 15 25 27 49 27 53 0 4 7 13 16 20 54 44 96 179
85 273 -6 53 -29 120 -43 127 -5 1 -21 29 -37 61 -17 32 -44 75 -62 95 -35 42
-77 113 -89 152 -4 14 -18 39 -30 55 -19 26 -40 65 -98 180 -6 11 -17 31 -26
45 -13 21 -13 23 -1 13 8 -6 78 -16 155 -23 77 -6 174 -18 216 -26 97 -18 129
-18 129 0 0 9 -7 12 -19 9 -10 -3 -22 0 -25 6 -4 6 0 11 10 11 13 0 14 3 4 15
-18 22 4 19 24 -3 24 -28 117 -72 162 -78 34 -4 32 -2 -18 14 -74 25 -117 52
-166 106 -39 42 -82 114 -82 136 0 6 53 10 148 11 138 1 145 2 113 15 -18 8
-31 17 -29 19 2 3 51 9 109 15 152 15 169 19 169 36 0 9 5 12 12 8 8 -5 9 -2
5 9 -4 10 1 21 11 27 14 10 13 10 -8 5 -47 -12 -256 -18 -245 -7 6 5 72 12
147 15 l137 4 -16 -23 c-8 -13 -11 -24 -7 -24 5 0 2 -5 -6 -10 -12 -7 -12 -13
-4 -27 9 -15 30 -19 135 -23 l124 -5 0 120 c0 66 3 127 7 135 11 24 30 141 24
147 -3 3 -10 -5 -15 -18 -5 -13 -19 -46 -31 -74 -21 -48 -28 -124 -16 -163 5
-15 -2 -17 -59 -16 -60 1 -83 -7 -52 -19 7 -3 5 -6 -5 -6 -10 -1 -18 3 -18 8
0 5 -10 7 -22 3 -20 -5 -21 -3 -10 10 10 13 7 15 -25 13 -38 -3 -372 19 -468
30 -108 13 -125 17 -125 31 0 12 37 14 218 14 119 0 278 5 352 11 74 6 146 12
159 12 28 2 37 40 14 62 -7 8 -13 18 -13 24 0 6 -17 11 -39 11 -59 0 -105 11
-89 21 10 7 8 9 -7 10 -33 2 57 18 106 18 44 1 46 2 68 48 13 26 36 65 53 85
l30 38 -166 -5 c-92 -3 -197 -9 -234 -15 -37 -5 -78 -9 -92 -9 -22 1 -22 2 8
11 20 7 32 18 33 29 3 39 29 128 40 135 5 3 9 26 9 52 0 26 10 81 21 122 12
41 25 93 30 115 6 23 22 50 37 62 l27 23 -41 -20 c-47 -22 -116 -39 -156 -40
l-28 0 20 20 c11 11 20 23 21 28 2 26 10 52 23 77 14 26 14 31 1 38 -29 16
-15 24 49 30 69 7 163 47 171 72 3 8 8 23 12 33 3 9 7 22 9 27 6 23 87 295
105 355 11 36 24 82 28 102 5 21 14 45 21 53 7 8 14 28 16 43 2 16 10 41 19
58 8 16 15 38 15 50 0 11 14 33 31 50 60 57 114 208 112 314 -4 184 -173 346
-375 358 -77 5 -122 -3 -102 -16 6 -4 26 -35 45 -69 18 -35 37 -63 42 -63 4 0
12 -11 17 -24 12 -31 -8 -100 -25 -86 -6 5 -25 9 -41 9 -16 0 -67 6 -113 12
-65 9 -86 9 -89 1 -2 -7 -13 -13 -25 -13 -12 -1 2 -5 30 -9 29 -4 61 -11 70
-14 15 -6 15 -8 3 -16 -12 -8 -9 -10 10 -10 26 -1 155 -42 167 -53 3 -4 14 -7
24 -7 23 0 34 -31 56 -159 l5 -33 -53 7 c-30 3 -107 20 -173 36 -65 16 -126
29 -135 29 -10 0 -32 16 -51 35 l-34 35 -23 -22 c-17 -16 -23 -33 -23 -67 -1
-69 -18 -130 -50 -178 -17 -27 -32 -69 -40 -111 -6 -37 -27 -125 -47 -197 -45
-164 -48 -186 -34 -251 11 -50 65 -144 115 -204 l21 -24 -35 25 c-43 33 -120
162 -120 203 0 7 -3 16 -7 20 -7 7 -25 -49 -79 -253 -39 -146 -35 -144 -107
-75 -33 33 -66 64 -72 69 -7 6 -47 42 -91 81 -121 109 -208 184 -214 184 -3 0
-13 -19 -23 -43 -9 -23 -28 -55 -41 -72 -20 -25 -18 -17 10 40 19 39 32 77 29
85 -3 8 -33 35 -65 60 -53 40 -59 48 -54 73 3 16 1 27 -5 27 -6 0 -11 18 -11
39 0 22 -5 52 -12 68 -6 15 -10 32 -9 36 1 5 -3 5 -10 2 -6 -4 -23 4 -37 17
-15 14 -47 39 -72 56 -25 17 -65 49 -90 72 -25 23 -80 71 -123 107 -42 36 -93
89 -113 119 -37 55 -54 73 -54 55 0 -5 4 -13 10 -16 5 -3 15 -15 21 -26 10
-19 9 -19 -10 -9 -11 6 -28 24 -37 41 l-15 31 60 57 c74 68 78 91 22 121 -17
8 -44 10 -89 6 -56 -6 -63 -5 -53 7 6 8 39 25 74 37 144 52 244 120 261 176
13 44 -46 80 -114 67z m-607 -250 c3 -5 -10 -15 -27 -24 -33 -17 -33 -17 -28
7 3 17 11 24 28 24 12 0 25 -3 27 -7z m-63 -60 c0 -5 -12 -14 -28 -20 l-27
-13 24 20 c25 22 31 24 31 13z m565 -24 c9 -13 -30 -56 -68 -76 -24 -12 -31
-12 -45 -1 -13 11 -15 11 -10 -3 5 -13 -3 -11 -32 9 l-39 25 20 29 c19 26 24
28 94 28 42 0 77 -5 80 -11z m-215 -3 c0 -2 -7 -9 -15 -16 -13 -11 -14 -10 -9
4 5 14 24 23 24 12z m1914 -251 c55 -8 115 -15 135 -15 20 0 43 -6 51 -13 13
-10 12 -15 -11 -37 l-26 -26 -91 23 c-50 12 -114 35 -144 52 -62 36 -54 37 86
16z m-1214 -467 c0 -6 -6 -5 -15 2 -8 7 -15 14 -15 16 0 2 7 1 15 -2 8 -4 15
-11 15 -16z m10 -121 c0 -2 -11 -27 -25 -55 -29 -59 -27 -68 29 -121 39 -38
44 -52 23 -70 -11 -9 -26 2 -70 47 l-55 59 -47 -40 c-45 -39 -130 -72 -104
-41 6 8 17 14 24 14 28 0 132 91 170 149 33 50 55 73 55 58z m-360 -247 c0 -5
-2 -10 -4 -10 -3 0 -8 5 -11 10 -3 6 -1 10 4 10 6 0 11 -4 11 -10z m50 0 c-20
-13 -40 -13 -40 0 0 6 12 10 28 10 21 0 24 -2 12 -10z m1264 -90 c32 -17 71
-30 85 -30 14 0 33 -5 41 -10 16 -10 -39 -5 -98 10 -37 10 -45 2 -82 -82 -11
-27 -24 -48 -28 -48 -12 0 -38 20 -27 20 6 0 17 17 24 38 7 20 20 52 28 70 12
26 13 35 3 47 -17 20 -14 19 54 -15z m-163 -107 c13 -16 12 -17 -3 -4 -17 13
-22 21 -14 21 2 0 10 -8 17 -17z m-506 -255 c119 -70 157 -88 191 -88 49 0 66
-53 32 -97 -5 -7 -25 -44 -44 -84 -28 -58 -37 -69 -48 -60 -11 9 -15 9 -19 -1
-4 -10 -7 -11 -18 0 -7 6 -21 12 -31 12 -10 0 -26 8 -36 18 -65 62 -84 73
-125 73 -55 1 -134 -8 -147 -16 -5 -3 -10 -1 -10 4 0 17 -25 13 -44 -8 -10
-10 -16 -25 -15 -33 4 -30 -2 -49 -13 -45 -7 2 -12 10 -11 16 2 6 -3 11 -10
11 -15 0 -47 36 -47 53 0 6 21 26 47 42 25 17 56 36 67 44 29 19 88 95 122
159 27 49 31 53 59 47 17 -3 62 -24 100 -47z m-1123 -150 c-30 -14 -47 -16
-60 -9 -15 9 -14 11 8 19 71 27 117 18 52 -10z m1761 -243 c-47 -24 -113 -85
-156 -145 l-18 -25 12 25 c24 50 65 94 123 132 33 21 66 38 75 38 8 0 -8 -11
-36 -25z m-889 -250 c42 -63 84 -132 95 -153 10 -20 33 -45 50 -55 33 -19 118
-124 108 -133 -3 -3 -12 7 -20 23 -19 35 -90 103 -138 131 -20 12 -63 28 -95
36 -34 8 -48 15 -33 15 14 1 40 -4 58 -10 18 -6 34 -9 36 -7 9 9 -67 109 -94
122 -21 11 -31 27 -41 63 -7 26 -14 56 -17 66 -11 43 21 8 91 -98z m1003 -171
c-3 -3 -12 -4 -19 -1 -8 3 -5 6 6 6 11 1 17 -2 13 -5z m-313 -129 c9 -14 13
-25 9 -25 -13 1 -38 24 -40 38 -5 21 14 13 31 -13z m-695 -115 c1 -26 -16 10
-23 50 l-6 35 14 -35 c8 -19 15 -42 15 -50z m772 3 c13 -16 12 -17 -3 -4 -17
13 -22 21 -14 21 2 0 10 -8 17 -17z m-764 -45 c-3 -8 -6 -5 -6 6 -1 11 2 17 5
13 3 -3 4 -12 1 -19z"/>
<path d="M2210 2374 c0 -8 5 -12 10 -9 6 4 8 11 5 16 -9 14 -15 11 -15 -7z"/>
<path d="M2956 4395 c-24 -16 -51 -25 -77 -25 -29 0 -47 -7 -64 -25 -33 -32
-31 -45 5 -45 17 0 30 -4 30 -8 0 -4 -25 -28 -55 -52 -54 -45 -69 -65 -39 -53
15 5 15 3 0 -25 -9 -17 -16 -45 -16 -63 0 -31 1 -32 39 -26 40 5 151 69 151
87 0 6 -18 1 -40 -10 -100 -51 -109 1 -19 107 20 24 31 29 55 26 25 -4 36 1
58 28 24 28 26 34 12 39 -15 5 -13 9 9 30 19 17 22 26 13 32 -19 11 -21 11
-62 -17z"/>
<path d="M2323 4361 c-94 -34 -213 -127 -213 -167 0 -8 -3 -13 -8 -11 -4 1
-31 -13 -59 -31 -59 -38 -106 -41 -111 -7 -2 15 12 28 58 53 101 55 160 131
116 148 -25 10 -109 -35 -159 -84 -60 -58 -77 -90 -77 -142 0 -33 4 -42 24
-51 31 -14 97 14 155 67 34 30 44 35 52 23 5 -8 9 -19 9 -25 0 -6 7 -17 15
-24 20 -16 44 -6 104 44 24 20 45 35 47 33 3 -2 -2 -20 -10 -39 -30 -70 16
-69 112 3 45 34 52 37 52 20 0 -70 41 -68 121 6 l61 57 -28 -50 c-50 -90 -15
-109 84 -44 64 41 87 73 32 45 -33 -17 -70 -20 -70 -5 0 6 27 40 60 75 33 35
60 71 60 80 0 26 -32 16 -82 -26 -75 -63 -181 -130 -191 -120 -14 14 4 36 71
85 34 25 62 50 62 56 0 5 -15 10 -33 10 -26 0 -42 -10 -79 -47 -25 -27 -51
-58 -57 -70 -6 -11 -31 -31 -56 -43 -74 -36 -87 -6 -29 66 23 28 34 50 30 60
-4 10 1 22 11 29 15 11 15 15 4 29 -16 19 -14 20 -78 -3z m-270 -84 c-35 -42
-91 -83 -99 -74 -15 15 90 112 108 101 5 -3 1 -16 -9 -27z m262 -8 c-91 -95
-175 -145 -175 -105 0 27 44 66 120 106 41 22 79 40 85 40 5 0 -9 -19 -30 -41z"/>
<path d="M3023 4253 c-76 -56 -96 -100 -77 -170 8 -30 23 -29 95 8 l61 30 -76
-85 c-52 -59 -76 -94 -76 -111 0 -14 4 -25 10 -25 5 0 49 32 97 71 48 39 105
80 126 90 34 18 56 43 46 54 -3 2 -25 -9 -49 -24 -25 -15 -63 -38 -85 -51
l-40 -24 43 49 c24 28 66 69 93 93 33 29 49 51 49 67 0 38 -13 37 -71 -7 -85
-64 -189 -107 -189 -78 0 12 11 21 80 68 35 24 55 45 55 57 0 34 -38 29 -92
-12z"/>
<path d="M1438 2883 c6 -2 18 -2 25 0 6 3 1 5 -13 5 -14 0 -19 -2 -12 -5z"/>
<path d="M1508 2873 c6 -2 18 -2 25 0 6 3 1 5 -13 5 -14 0 -19 -2 -12 -5z"/>
<path d="M712 2529 c-23 -12 -65 -44 -93 -73 -124 -127 -150 -309 -64 -461 72
-130 148 -197 258 -230 91 -27 246 -10 239 26 -1 9 7 24 18 34 11 10 20 23 20
28 0 5 -24 58 -54 116 -29 58 -62 129 -72 156 -10 28 -44 100 -76 162 -31 61
-65 142 -75 180 -24 92 -31 96 -101 62z m68 -49 c0 -6 9 -30 20 -52 11 -23 18
-44 15 -46 -3 -3 -5 0 -5 6 0 7 -5 12 -10 12 -6 0 -2 -17 9 -37 10 -21 22 -54
26 -73 3 -19 15 -60 26 -90 13 -37 15 -49 5 -37 -10 13 -15 14 -18 5 -3 -7
-21 22 -41 65 -27 57 -35 84 -31 107 7 34 -10 86 -38 113 -10 10 -16 22 -13
28 8 12 55 12 55 -1z m-60 -41 c0 -11 -4 -17 -10 -14 -5 3 -10 15 -10 26 0 11
5 17 10 14 6 -3 10 -15 10 -26z m-129 -102 c-11 -18 -27 -58 -35 -88 -8 -30
-15 -44 -15 -32 -1 28 26 109 46 140 24 37 28 18 4 -20z m74 -457 c10 -11 16
-20 13 -20 -3 0 -13 9 -23 20 -10 11 -16 20 -13 20 3 0 13 -9 23 -20z"/>
<path d="M770 2448 c0 -9 5 -20 10 -23 13 -8 13 5 0 25 -8 13 -10 13 -10 -2z"/>
<path d="M4033 2349 c-35 -10 -54 -29 -29 -29 19 0 19 -1 6 -34 -9 -24 -8 -26
20 -26 27 0 30 3 30 30 0 32 9 37 28 18 9 -9 12 -9 12 0 0 7 -7 15 -15 18 -28
11 -15 23 14 13 28 -10 28 -12 26 -73 -2 -34 1 -69 6 -77 8 -12 15 86 11 143
-1 14 5 16 36 11 20 -2 56 -11 80 -18 58 -19 44 -1 -15 19 -50 17 -159 20
-210 5z"/>
<path d="M3934 2295 c-10 -8 -14 -14 -9 -15 15 0 40 18 34 24 -3 3 -14 -1 -25
-9z"/>
<path d="M3970 2260 c0 -16 2 -30 4 -30 2 0 6 14 8 30 3 17 1 30 -4 30 -4 0
-8 -13 -8 -30z"/>
<path d="M3879 2243 c-10 -11 -11 -17 -3 -20 8 -3 9 -16 3 -41 -4 -20 -12 -80
-18 -132 -6 -52 -13 -120 -17 -150 -4 -30 -4 -52 0 -48 16 14 65 408 52 408
-2 0 -10 -7 -17 -17z"/>
<path d="M3939 2253 c-4 -40 -3 -61 2 -57 10 6 17 64 7 64 -4 0 -8 -3 -9 -7z"/>
<path d="M3937 2173 c-4 -3 -7 -13 -7 -22 1 -13 3 -13 11 2 11 19 8 33 -4 20z"/>
<path d="M3966 2165 c-3 -9 -6 -24 -5 -33 0 -9 5 -4 10 12 9 32 6 48 -5 21z"/>
<path d="M3914 2076 c-3 -8 -4 -25 -2 -38 3 -17 5 -13 9 15 5 38 2 47 -7 23z"/>
<path d="M1255 1918 l-16 -33 21 24 c11 13 20 27 20 32 0 18 -10 8 -25 -23z"/>
<path d="M3827 1833 c-4 -3 -6 -22 -6 -42 l1 -36 8 40 c8 42 8 49 -3 38z"/>
<path d="M1916 1441 c-12 -19 56 -151 77 -151 9 0 17 5 17 10 0 6 -4 10 -8 10
-4 0 -16 22 -27 49 -24 63 -50 98 -59 82z"/>
<path d="M2031 1044 c0 -11 3 -14 6 -6 3 7 2 16 -1 19 -3 4 -6 -2 -5 -13z"/>
</g>
</svg>
